<svg xmlns="http://www.w3.org/2000/svg" viewBox="0 0 5138.0 1727.6" width="5138.0" height="1727.6" role="img" aria-label="LitLaunch">
<g transform="translate(160.0 1475.0) scale(1 -1)">
  <g fill="#1FC85C">
    <path transform="translate(0.0 0)" d="M66 0V700H198V120H518V0Z"/>
    <path transform="translate(542.0 0)" d="M70 0V496H196V0Z"/>
    <path transform="translate(808.0 0)" d="M260 0Q211 0 180.5 30.5Q150 61 150 112V392H26V496H150V650H276V496H412V392H276V134Q276 104 304 104H400V0Z"/>
  </g>
  <g fill="#FFFFFF">
    <path transform="translate(1264.0 0)" d="M66 0V700H198V120H518V0Z"/>
    <path transform="translate(1806.0 0)" d="M224 -14Q171 -14 129.0 4.5Q87 23 62.5 58.5Q38 94 38 145Q38 196 62.5 230.5Q87 265 130.5 282.5Q174 300 230 300H366V328Q366 363 344.0 385.5Q322 408 274 408Q227 408 204.0 386.5Q181 365 174 331L58 370Q70 408 96.5 439.5Q123 471 167.5 490.5Q212 510 276 510Q374 510 431.0 461.0Q488 412 488 319V134Q488 104 516 104H556V0H472Q435 0 411.0 18.0Q387 36 387 66V67H368Q364 55 350.0 35.5Q336 16 306.0 1.0Q276 -14 224 -14ZM246 88Q299 88 332.5 117.5Q366 147 366 196V206H239Q204 206 184.0 191.0Q164 176 164 149Q164 122 185.0 105.0Q206 88 246 88Z"/>
    <path transform="translate(2384.0 0)" d="M259 -8Q201 -8 157.5 18.5Q114 45 90.0 92.0Q66 139 66 200V496H192V210Q192 154 219.5 126.0Q247 98 298 98Q356 98 388.0 136.5Q420 175 420 244V496H546V0H422V65H404Q392 40 359.0 16.0Q326 -8 259 -8Z"/>
    <path transform="translate(3000.0 0)" d="M70 0V496H194V431H212Q224 457 257.0 480.5Q290 504 357 504Q415 504 458.5 477.5Q502 451 526.0 404.5Q550 358 550 296V0H424V286Q424 342 396.5 370.0Q369 398 318 398Q260 398 228.0 359.5Q196 321 196 252V0Z"/>
    <path transform="translate(3616.0 0)" d="M303 -14Q231 -14 172.5 16.0Q114 46 80.0 103.0Q46 160 46 241V255Q46 336 80.0 393.0Q114 450 172.5 480.0Q231 510 303 510Q374 510 425.0 485.0Q476 460 507.5 416.5Q539 373 549 318L427 292Q423 322 409.0 346.0Q395 370 369.5 384.0Q344 398 306 398Q268 398 237.5 381.5Q207 365 189.5 332.5Q172 300 172 253V243Q172 196 189.5 163.5Q207 131 237.5 114.5Q268 98 306 98Q363 98 392.5 127.5Q422 157 430 205L552 176Q539 123 507.5 79.5Q476 36 425.0 11.0Q374 -14 303 -14Z"/>
    <path transform="translate(4202.0 0)" d="M70 0V700H196V435H214Q222 451 239.0 467.0Q256 483 284.5 493.5Q313 504 357 504Q415 504 458.5 477.5Q502 451 526.0 404.5Q550 358 550 296V0H424V286Q424 342 396.5 370.0Q369 398 318 398Q260 398 228.0 359.5Q196 321 196 252V0Z"/>
  </g>
</g>
<g transform="translate(584.4 160.0) scale(8.3523)">
    <defs>
      <linearGradient id="fOuter" x1="0" y1="0" x2="0" y2="1">
        <stop offset="0" stop-color="#FFD23F"/>
        <stop offset="0.5" stop-color="#FF8A00"/>
        <stop offset="1" stop-color="#F2520B"/>
      </linearGradient>
      <linearGradient id="fInner" x1="0" y1="0" x2="0" y2="1">
        <stop offset="0" stop-color="#FFF3B0"/>
        <stop offset="1" stop-color="#FFCC33"/>
      </linearGradient>
      <radialGradient id="fBase" cx="0.5" cy="0.5" r="0.5">
        <stop offset="0" stop-color="#9B6CFF"/>
        <stop offset="1" stop-color="#9B6CFF" stop-opacity="0"/>
      </radialGradient>
    </defs>
    <path d="M30 1 C 41 24 56 39 56 60 C 56 78 45 88 30 88 C 15 88 4 78 4 60 C 4 39 19 24 30 1 Z" fill="url(#fOuter)"/>
    <path d="M30 23 C 38 37 46 47 46 61 C 46 74 39 81 30 81 C 21 81 14 74 14 61 C 14 47 22 37 30 23 Z" fill="url(#fInner)"/>
    <ellipse cx="30" cy="75" rx="11" ry="9" fill="url(#fBase)"/>
  </g>
</svg>
