<svg xmlns="http://www.w3.org/2000/svg" viewBox="0 0 1387.0 297.4" width="760" height="163" role="img" aria-label="Powered by LitLaunch"><g transform="translate(50.4 209.8) scale(0.0514 -0.0514)"><path fill="#FFFFFF" transform="translate(0.0 0)" d="M69.499755859375 0V700H352.42510986328125Q417.72515869140625 700 468.0501708984375 674.0249633789062Q518.3751831054688 648.0499267578125 546.9626770019531 600.7498779296875Q575.5501708984375 553.4498291015625 575.5501708984375 487.97479248046875V474.32476806640625Q575.5501708984375 409.67474365234375 546.0501708984375 361.87469482421875Q516.5501708984375 314.07464599609375 466.22515869140625 288.1871032714844Q415.900146484375 262.299560546875 352.42510986328125 262.299560546875H189.6005859375V0ZM189.6005859375 371.4503173828125H340.47503662109375Q392.37469482421875 371.4503173828125 423.9120178222656 399.37518310546875Q455.4493408203125 427.300048828125 455.4493408203125 476.1497802734375V486.1497802734375Q455.4493408203125 535.1744995117188 424.0870056152344 563.0118713378906Q392.72467041015625 590.8492431640625 340.47503662109375 590.8492431640625H189.6005859375Z"/><path fill="#FFFFFF" transform="translate(783.0 0)" d="M337.12506103515625 -14Q206.699951171875 -14 129.57489013671875 58.5Q52.4498291015625 131 52.4498291015625 266.87493896484375V433.12506103515625Q52.4498291015625 569 129.57489013671875 641.5Q206.699951171875 714 337.12506103515625 714Q467.5501708984375 714 544.6752319335938 641.5Q621.80029296875 569 621.80029296875 433.12506103515625V266.87493896484375Q621.80029296875 131 544.6752319335938 58.5Q467.5501708984375 -14 337.12506103515625 -14ZM337.12506103515625 93.500732421875Q415.32476806640625 93.500732421875 458.5121154785156 139.300537109375Q501.699462890625 185.100341796875 501.699462890625 263.22491455078125V436.77508544921875Q501.699462890625 514.899658203125 458.5121154785156 560.699462890625Q415.32476806640625 606.499267578125 337.12506103515625 606.499267578125Q259.92535400390625 606.499267578125 216.23800659179688 560.699462890625Q172.5506591796875 514.899658203125 172.5506591796875 436.77508544921875V263.22491455078125Q172.5506591796875 185.100341796875 216.23800659179688 139.300537109375Q259.92535400390625 93.500732421875 337.12506103515625 93.500732421875Z"/><path fill="#FFFFFF" transform="translate(1637.0 0)" d="M129.17449951171875 0 31.7498779296875 700H151.20068359375L226.900146484375 82.5506591796875H243.8502197265625L341.82452392578125 700H550.5758666992188L648.5501708984375 82.5506591796875H665.500244140625L741.19970703125 700H860.6505126953125L763.2258911132812 0H554.299560546875L454.67523193359375 628.99951171875H437.72515869140625L338.100830078125 0Z"/><path fill="#FFFFFF" transform="translate(2709.0 0)" d="M69.499755859375 0V700H514.7750854492188V590.8492431640625H189.6005859375V407.22540283203125H486.77508544921875V298.07464599609375H189.6005859375V109.1507568359375H520.4251098632812V0Z"/><path fill="#FFFFFF" transform="translate(3445.0 0)" d="M69.499755859375 0V700H368.2501220703125Q434.07513427734375 700 483.1626281738281 677.1749877929688Q532.2501220703125 654.3499755859375 559.5126037597656 612.4374694824219Q586.7750854492188 570.5249633789062 586.7750854492188 513.1749877929688V501.52496337890625Q586.7750854492188 437.12506103515625 556.0751342773438 397.8625793457031Q525.3751831054688 358.60009765625 481.02520751953125 341.47503662109375V324.52496337890625Q520.1502685546875 322.699951171875 542.500244140625 297.9873962402344Q564.8502197265625 273.27484130859375 564.8502197265625 230.57489013671875V0H444.7493896484375V213.67474365234375Q444.7493896484375 239.07464599609375 431.37445068359375 254.42462158203125Q417.99951171875 269.77459716796875 387.9495849609375 269.77459716796875H189.6005859375V0ZM189.6005859375 378.92535400390625H355.6500244140625Q408.07464599609375 378.92535400390625 437.37445068359375 406.3502197265625Q466.67425537109375 433.77508544921875 466.67425537109375 480.32476806640625V489.4498291015625Q466.67425537109375 535.99951171875 437.9619445800781 563.4243774414062Q409.2496337890625 590.8492431640625 355.6500244140625 590.8492431640625H189.6005859375Z"/><path fill="#FFFFFF" transform="translate(4257.0 0)" d="M69.499755859375 0V700H514.7750854492188V590.8492431640625H189.6005859375V407.22540283203125H486.77508544921875V298.07464599609375H189.6005859375V109.1507568359375H520.4251098632812V0Z"/><path fill="#FFFFFF" transform="translate(4993.0 0)" d="M46.3499755859375 0V105.8507080078125H139.7498779296875V594.1492919921875H46.3499755859375V700H330.500244140625Q470.80029296875 700 544.8252563476562 628.8499755859375Q618.8502197265625 557.699951171875 618.8502197265625 415.6500244140625V284.17498779296875Q618.8502197265625 142.12506103515625 544.8252563476562 71.06253051757812Q470.80029296875 0 330.500244140625 0ZM259.8507080078125 109.1507568359375H332.1502685546875Q417.39990234375 109.1507568359375 458.07464599609375 153.07562255859375Q498.7493896484375 197.00048828125 498.7493896484375 280.3499755859375V419.47503662109375Q498.7493896484375 503.82452392578125 458.07464599609375 547.2493896484375Q417.39990234375 590.6742553710938 332.1502685546875 590.6742553710938H259.8507080078125Z"/><path fill="#FFFFFF" transform="translate(6273.0 0)" d="M46.3499755859375 0V105.8507080078125H139.7498779296875V594.1492919921875H46.3499755859375V700H404.07513427734375Q467.37518310546875 700 514.7876892089844 678.4125061035156Q562.2001953125 656.8250122070312 588.7001953125 617.3250122070312Q615.2001953125 577.8250122070312 615.2001953125 523.3499755859375V513.699951171875Q615.2001953125 465.52496337890625 597.0252075195312 434.7624816894531Q578.8502197265625 404 553.9127502441406 387.2375183105469Q528.9752807617188 370.47503662109375 506.27532958984375 363.300048828125V346.3499755859375Q528.9752807617188 340.3499755859375 555.2377624511719 323.5Q581.500244140625 306.6500244140625 600.000244140625 275.47503662109375Q618.500244140625 244.300048828125 618.500244140625 194.47503662109375V184.47503662109375Q618.500244140625 126.6500244140625 591.4127502441406 85.23751831054688Q564.3252563476562 43.82501220703125 516.8252563476562 21.912506103515625Q469.32525634765625 0 406.8502197265625 0ZM259.8507080078125 109.1507568359375H392.60009765625Q441.19970703125 109.1507568359375 469.799560546875 132.6005859375Q498.3994140625 156.0504150390625 498.3994140625 198.5501708984375V208.2001953125Q498.3994140625 250.699951171875 470.2120666503906 274.1497802734375Q442.02471923828125 297.599609375 392.60009765625 297.599609375H259.8507080078125ZM259.8507080078125 406.7503662109375H391.6500244140625Q437.5496826171875 406.7503662109375 466.32452392578125 430.1127014160156Q495.099365234375 453.47503662109375 495.099365234375 493.7998046875V503.7998046875Q495.099365234375 544.9495849609375 466.7370300292969 567.8994140625Q438.37469482421875 590.8492431640625 391.6500244140625 590.8492431640625H259.8507080078125Z"/><path fill="#FFFFFF" transform="translate(7116.0 0)" d="M250.19970703125 0V247.299560546875L9.39990234375 700H143.97576904296875L301.77508544921875 391.2506103515625H318.72515869140625L476.52447509765625 700H611.100341796875L370.300537109375 247.299560546875V0Z"/></g><g transform="translate(510.7 251.8) scale(0.1714 -0.1714)"><path fill="#1FC85C" transform="translate(0.0 0)" d="M66 0V700H198V120H518V0Z"/><path fill="#1FC85C" transform="translate(542.0 0)" d="M70 0V496H196V0Z"/><path fill="#1FC85C" transform="translate(808.0 0)" d="M260 0Q211 0 180.5 30.5Q150 61 150 112V392H26V496H150V650H276V496H412V392H276V134Q276 104 304 104H400V0Z"/><path fill="#FFFFFF" transform="translate(1264.0 0)" d="M66 0V700H198V120H518V0Z"/><path fill="#FFFFFF" transform="translate(1806.0 0)" d="M224 -14Q171 -14 129.0 4.5Q87 23 62.5 58.5Q38 94 38 145Q38 196 62.5 230.5Q87 265 130.5 282.5Q174 300 230 300H366V328Q366 363 344.0 385.5Q322 408 274 408Q227 408 204.0 386.5Q181 365 174 331L58 370Q70 408 96.5 439.5Q123 471 167.5 490.5Q212 510 276 510Q374 510 431.0 461.0Q488 412 488 319V134Q488 104 516 104H556V0H472Q435 0 411.0 18.0Q387 36 387 66V67H368Q364 55 350.0 35.5Q336 16 306.0 1.0Q276 -14 224 -14ZM246 88Q299 88 332.5 117.5Q366 147 366 196V206H239Q204 206 184.0 191.0Q164 176 164 149Q164 122 185.0 105.0Q206 88 246 88Z"/><path fill="#FFFFFF" transform="translate(2384.0 0)" d="M259 -8Q201 -8 157.5 18.5Q114 45 90.0 92.0Q66 139 66 200V496H192V210Q192 154 219.5 126.0Q247 98 298 98Q356 98 388.0 136.5Q420 175 420 244V496H546V0H422V65H404Q392 40 359.0 16.0Q326 -8 259 -8Z"/><path fill="#FFFFFF" transform="translate(3000.0 0)" d="M70 0V496H194V431H212Q224 457 257.0 480.5Q290 504 357 504Q415 504 458.5 477.5Q502 451 526.0 404.5Q550 358 550 296V0H424V286Q424 342 396.5 370.0Q369 398 318 398Q260 398 228.0 359.5Q196 321 196 252V0Z"/><path fill="#FFFFFF" transform="translate(3616.0 0)" d="M303 -14Q231 -14 172.5 16.0Q114 46 80.0 103.0Q46 160 46 241V255Q46 336 80.0 393.0Q114 450 172.5 480.0Q231 510 303 510Q374 510 425.0 485.0Q476 460 507.5 416.5Q539 373 549 318L427 292Q423 322 409.0 346.0Q395 370 369.5 384.0Q344 398 306 398Q268 398 237.5 381.5Q207 365 189.5 332.5Q172 300 172 253V243Q172 196 189.5 163.5Q207 131 237.5 114.5Q268 98 306 98Q363 98 392.5 127.5Q422 157 430 205L552 176Q539 123 507.5 79.5Q476 36 425.0 11.0Q374 -14 303 -14Z"/><path fill="#FFFFFF" transform="translate(4202.0 0)" d="M70 0V700H196V435H214Q222 451 239.0 467.0Q256 483 284.5 493.5Q313 504 357 504Q415 504 458.5 477.5Q502 451 526.0 404.5Q550 358 550 296V0H424V286Q424 342 396.5 370.0Q369 398 318 398Q260 398 228.0 359.5Q196 321 196 252V0Z"/></g><g transform="translate(583.5 26.4) scale(1.4318)">
    <defs>
      <linearGradient id="fOuter" x1="0" y1="0" x2="0" y2="1">
        <stop offset="0" stop-color="#FFD23F"/><stop offset="0.5" stop-color="#FF8A00"/><stop offset="1" stop-color="#F2520B"/>
      </linearGradient>
      <linearGradient id="fInner" x1="0" y1="0" x2="0" y2="1">
        <stop offset="0" stop-color="#FFF3B0"/><stop offset="1" stop-color="#FFCC33"/>
      </linearGradient>
      <radialGradient id="fBase" cx="0.5" cy="0.5" r="0.5">
        <stop offset="0" stop-color="#9B6CFF"/><stop offset="1" stop-color="#9B6CFF" stop-opacity="0"/>
      </radialGradient>
    </defs>
    <path d="M30 1 C 41 24 56 39 56 60 C 56 78 45 88 30 88 C 15 88 4 78 4 60 C 4 39 19 24 30 1 Z" fill="url(#fOuter)"/><path d="M30 23 C 38 37 46 47 46 61 C 46 74 39 81 30 81 C 21 81 14 74 14 61 C 14 47 22 37 30 23 Z" fill="url(#fInner)"/>
    <ellipse cx="30" cy="75" rx="11" ry="9" fill="url(#fBase)"/>
  </g></svg>
